<?xml version="1.0"?>
<svg xmlns="http://www.w3.org/2000/svg" height="512px" viewBox="0 0 512 512" width="512px" class=""><g><path d="m226 211.894531c8.28125 0 15-6.714843 15-15v-20.019531c0-8.285156-6.71875-15-15-15-8.285156 0-15 6.714844-15 15v20.019531c0 8.285157 6.714844 15 15 15zm0 0" data-original="#000000" class="active-path" data-old_color="#acac9f" fill="#acac9f"/><path d="m226 291.964844c8.28125 0 15-6.714844 15-15v-20.015625c0-8.285157-6.71875-15-15-15-8.285156 0-15 6.714843-15 15v20.015625c0 8.285156 6.714844 15 15 15zm0 0" data-original="#000000" class="active-path" data-old_color="#acac9f" fill="#acac9f"/><path d="m226 372.039062c8.28125 0 15-6.71875 15-15v-20.019531c0-8.285156-6.71875-15-15-15-8.285156 0-15 6.714844-15 15v20.019531c0 8.285157 6.714844 15 15 15zm0 0" data-original="#000000" class="active-path" data-old_color="#acac9f" fill="#acac9f"/><path d="m496.996094 277.691406h-190.988282v-33.632812h48.753907c8.285156 0 15-6.714844 15-15s-6.714844-15-15-15h-48.753907v-97.238282c0-8.28125-6.71875-15-15-15h-6.894531v-45.054687c0-8.28125-6.71875-15-15-15h-28.105469v-26.765625c0-8.285156-6.71875-15-15-15-8.285156 0-15 6.714844-15 15v26.765625h-28.117187c-8.285156 0-15 6.71875-15 15v45.054687h-6.882813c-8.285156 0-15 6.71875-15 15v365.167969h-59v-26.878906c17.460938-6.191406 30-22.863281 30-42.417969v-50c0-24.8125-20.1875-45-45-45s-45 20.1875-45 45v50c0 19.554688 12.542969 36.226563 30 42.417969v26.878906h-42.007812c-8.285156 0-15 6.714844-15 15 0 8.285157 6.714844 15 15 15l481.996094.011719c8.285156 0 15-6.714844 15-15v-204.308594c0-8.285156-6.714844-15-15-15zm-439.988282 85c0-8.269531 6.730469-15 15-15 8.269532 0 15 6.730469 15 15v50c0 8.273438-6.730468 15-15 15-8.269531 0-15-6.726562-15-15zm249.449219-55h175.539063v30h-175.539063zm-108.566406-235.925781h56.222656v30.054687h-56.222656zm-21.882813 60.054687h99.773438v350.167969h-35.621094v-44.878906c0-8.28125-6.714844-15-15-15-8.28125 0-15 6.71875-15 15v44.878906h-34.152344zm305.988282 350.167969h-175.988282v-114.296875h175.988282zm0 0" data-original="#000000" class="active-path" data-old_color="#acac9f" fill="#acac9f"/><path d="m15 211.894531h75.273438c8.285156 0 15-6.714843 15-15 0-8.285156-6.714844-15-15-15h-75.273438c-8.285156 0-15 6.714844-15 15 0 8.285157 6.714844 15 15 15zm0 0" data-original="#000000" class="active-path" data-old_color="#acac9f" fill="#acac9f"/><path d="m408.550781 59.925781h88.449219c8.285156 0 15-6.714843 15-15 0-8.285156-6.714844-15-15-15h-88.449219c-8.28125 0-15 6.714844-15 15 0 8.285157 6.71875 15 15 15zm0 0" data-original="#000000" class="active-path" data-old_color="#acac9f" fill="#acac9f"/><path d="m411.457031 452c8.285157 0 15-6.71875 15-15v-20c0-8.285156-6.714843-15-15-15-8.285156 0-15 6.714844-15 15v20c0 8.28125 6.714844 15 15 15zm0 0" data-original="#000000" class="active-path" data-old_color="#acac9f" fill="#acac9f"/><path d="m351.457031 452c8.285157 0 15-6.71875 15-15v-20c0-8.285156-6.714843-15-15-15-8.285156 0-15 6.714844-15 15v20c0 8.28125 6.714844 15 15 15zm0 0" data-original="#000000" class="active-path" data-old_color="#acac9f" fill="#acac9f"/></g> </svg>
