<?xml version="1.0"?>
<svg xmlns="http://www.w3.org/2000/svg" height="512px" viewBox="-3 0 512 512.001" width="512px"><g><path d="m134.316406 69.304688c2.558594 0 5.117188-.980469 7.070313-2.929688l11.011719-11.011719c2.832031-2.835937 6.601562-4.394531 10.609374-4.394531h17.929688c9.351562 0 18.140625-3.644531 24.753906-10.253906l16.316406-16.320313c2.835938-2.832031 6.605469-4.394531 10.613282-4.394531h53.378906c5.519531 0 10-4.476562 10-10s-4.480469-10-10-10h-53.378906c-9.351563 0-18.140625 3.640625-24.753906 10.253906l-16.316407 16.316406c-2.835937 2.835938-6.605469 4.398438-10.613281 4.398438h-17.929688c-9.351562 0-18.140624 3.640625-24.753906 10.253906l-11.007812 11.007813c-3.90625 3.90625-3.90625 10.238281 0 14.144531 1.953125 1.949219 4.511718 2.929688 7.070312 2.929688zm0 0" data-original="#000000" class="active-path" data-old_color="#000000" fill="#FFFFF0"/><path d="m286 41.976562h-22.109375c-9.351563 0-18.140625 3.644532-24.75 10.253907-2.835937 2.835937-6.605469 4.398437-10.613281 4.398437h-12.664063c-5.523437 0-10 4.476563-10 10 0 5.519532 4.476563 10 10 10h12.664063c9.351562 0 18.140625-3.644531 24.753906-10.253906 2.835938-2.835938 6.605469-4.398438 10.609375-4.398438h22.109375c5.523438 0 10-4.476562 10-10 0-5.519531-4.476562-10-10-10zm0 0" data-original="#000000" class="active-path" data-old_color="#000000" fill="#FFFFF0"/><path d="m322.1875 13.820312c1.582031 3.863282 5.570312 6.363282 9.730469 6.167969 4.113281-.195312 7.761719-3.019531 9.019531-6.933593 1.277344-3.964844-.105469-8.453126-3.425781-10.984376-3.378907-2.574218-8.09375-2.71875-11.632813-.378906-3.921875 2.589844-5.5 7.789063-3.691406 12.128906zm0 0" data-original="#000000" class="active-path" data-old_color="#000000" fill="#FFFFF0"/><path d="m493.105469 366.078125h-2.671875v-110.933594c1.558594.917969 3.308594 1.386719 5.0625 1.386719 2.53125 0 5.0625-.953125 7.011718-2.871094 3.9375-3.871094 3.992188-10.203125.117188-14.140625l-12.191406-12.398437v-102.65625c0-2.652344-1.054688-5.195313-2.929688-7.070313-1.875-1.878906-4.421875-2.929687-7.074218-2.929687l-100.773438.007812-16.964844-17.25c-1.871094-1.902344-4.421875-2.976562-7.085937-2.988281h-.003907c-.011718 0-.027343 0-.042968 0-.640625 0-1.277344.0625-1.898438.183594-.019531.003906-.039062.007812-.058594.011719-1.921874.382812-3.703124 1.324218-5.109374 2.726562l-19.148438 19.125h-146.34375v-25.046875c0-5.523437-4.476562-10-10-10h-58c-5.523438 0-10 4.476563-10 10v25.046875h-95c-5.523438 0-10 4.476562-10 10v104.929688c0 5.523437 4.476562 10 10 10h10.058594v124.867187h-.382813c-5.523437 0-10 4.480469-10 10 0 5.523437 4.476563 10 10 10h.382813v115.921875c0 5.523438 4.476562 10 10 10h450.375c5.519531 0 10-4.476562 10-10v-115.921875h2.671875c5.519531 0 10-4.476563 10-10 0-5.519531-4.480469-10-10-10zm-79.171875-188.222656 42.636718 43.359375h-86.03125zm-14.023438-14.261719-57.664062 57.621094h-89.667969l102.917969-102.785156zm-161.5 77.621094h97.976563v124.863281h-97.976563zm117.976563 0h114.046875v124.863281h-114.046875zm114.046875-106.75v72.316406l-71.105469-72.308594zm-345.433594-33.230469h38v64.714844h-38zm-105 35.046875h85v29.667969h-9.621094c-5.519531 0-10 4.480469-10 10 0 5.523437 4.480469 10 10 10h100.355469c5.523437 0 10-4.476563 10-10 0-5.519531-4.476563-10-10-10h-12.734375v-29.667969h126.316406l-85.042968 84.933594-204.273438-.003906zm20.058594 249.796875h42.816406c5.523438 0 10-4.476563 10-10 0-5.519531-4.476562-10-10-10h-42.816406v-124.863281h164.929687c-1.863281 3.738281-1.246093 8.402344 1.867188 11.523437 3.125 3.128907 7.804687 3.746094 11.554687 1.867188v111.472656h-43.625c-5.523437 0-10 4.480469-10 10 0 5.523437 4.476563 10 10 10h43.625v105.921875h-48.441406v-71.097656c0-5.519532-4.476562-10-10-10h-61.316406c-5.523438 0-10 4.480468-10 10v71.097656h-48.59375zm68.59375 105.921875v-61.097656h41.316406v61.097656zm129.757812-105.921875h97.976563v105.921875h-97.976563zm232.023438 105.921875h-114.046875v-105.921875h114.046875zm0 0" data-original="#000000" class="active-path" data-old_color="#000000" fill="#FFFFF0"/><path d="m414.75 258.84375c-17.238281 0-31.257812 14.023438-31.257812 31.257812v49.285157c0 5.523437 4.476562 10 10 10h42.515624c5.523438 0 10-4.476563 10-10v-49.285157c0-17.234374-14.023437-31.257812-31.257812-31.257812zm11.257812 70.542969h-22.515624v-39.285157c0-6.207031 5.050781-11.257812 11.257812-11.257812s11.257812 5.050781 11.257812 11.257812zm0 0" data-original="#000000" class="active-path" data-old_color="#000000" fill="#FFFFF0"/><path d="m129.253906 349.386719h48.597656c5.523438 0 10-4.476563 10-10v-66.894531c0-5.519532-4.476562-10-10-10h-97.082031c-5.523437 0-10 4.480468-10 10v66.894531c0 5.523437 4.476563 10 10 10h48.464844zm38.597656-20h-28.632812c-.023438-16.574219-.042969-35.664063-.035156-46.894531h28.667968zm-77.082031-46.894531h28.414063v.496093c-.003906 6.28125 0 14.644531.007812 23.003907.007813 8.546874.019532 17.085937.027344 23.394531h-28.449219zm0 0" data-original="#000000" class="active-path" data-old_color="#000000" fill="#FFFFF0"/><path d="m308.851562 274.578125h-42.0625c-5.523437 0-10 4.476563-10 10v47.480469c0 5.519531 4.476563 10 10 10h42.0625c5.523438 0 10-4.480469 10-10v-47.480469c0-5.523437-4.476562-10-10-10zm-10 47.480469h-22.0625v-27.480469h22.0625zm0 0" data-original="#000000" class="active-path" data-old_color="#000000" fill="#FFFFF0"/><path d="m308.851562 406.769531h-42.0625c-5.523437 0-10 4.476563-10 10v47.480469c0 5.519531 4.476563 10 10 10h42.0625c5.523438 0 10-4.480469 10-10v-47.480469c0-5.523437-4.476562-10-10-10zm-10 47.480469h-22.0625v-27.480469h22.0625zm0 0" data-original="#000000" class="active-path" data-old_color="#000000" fill="#FFFFF0"/><path d="m393.902344 451.507812c5.519531 0 10-4.476562 10-10v-24.601562c0-5.523438-4.480469-10-10-10-5.523438 0-10 4.476562-10 10v24.601562c0 5.523438 4.476562 10 10 10zm0 0" data-original="#000000" class="active-path" data-old_color="#000000" fill="#FFFFF0"/><path d="m435.371094 451.507812c5.523437 0 10-4.476562 10-10v-24.601562c0-5.523438-4.476563-10-10-10-5.523438 0-10 4.476562-10 10v24.601562c0 5.523438 4.476562 10 10 10zm0 0" data-original="#000000" class="active-path" data-old_color="#000000" fill="#FFFFF0"/><path d="m138.417969 373.421875c-1.609375-3.933594-5.714844-6.453125-9.949219-6.148437-4.152344.300781-7.75 3.222656-8.894531 7.222656-1.148438 4.011718.382812 8.449218 3.78125 10.875 3.351562 2.394531 7.945312 2.472656 11.371093.1875 3.921876-2.605469 5.503907-7.789063 3.691407-12.136719zm0 0" data-original="#000000" class="active-path" data-old_color="#000000" fill="#FFFFF0"/></g> </svg>
