<?xml version="1.0"?>
<svg xmlns="http://www.w3.org/2000/svg" height="512px" viewBox="0 0 512 512" width="512px"><g><path d="m502 0h-492c-5.523438 0-10 4.476562-10 10v56c0 5.523438 4.476562 10 10 10v426c0 5.523438 4.476562 10 10 10h472c5.523438 0 10-4.476562 10-10v-426c5.523438 0 10-4.476562 10-10v-56c0-5.523438-4.476562-10-10-10zm-482 20h472v36h-472zm418 56v44h-297.332031c-5.519531 0-10 4.476562-10 10s4.480469 10 10 10h297.332031v44h-408v-44h30.667969c5.523437 0 10-4.476562 10-10s-4.476563-10-10-10h-30.667969v-44zm-408 172v-44h408v44zm418 81.5c7.925781 0 14.375 6.449219 14.375 14.375s-6.449219 14.375-14.375 14.375-14.375-6.449219-14.375-14.375 6.449219-14.375 14.375-14.375zm10-18.511719v-42.988281h24v70.816406c-1.957031-13.222656-11.472656-24.011718-24-27.828125zm0-62.988281v-44h24v44zm24-64h-24v-44h24zm-452 84h313.023438l-224 224h-89.023438zm117.308594 224 224-224h51.714844l-157.011719 157.011719c-3.90625 3.90625-3.90625 10.238281 0 14.144531 1.953125 1.949219 4.511719 2.929688 7.070312 2.929688 2.558594 0 5.117188-.980469 7.070313-2.929688l157.847656-157.847656v29.679687c-14.09375 4.292969-24.375 17.410157-24.375 32.886719 0 18.953125 15.421875 34.375 34.375 34.375 17.234375 0 31.546875-12.753906 34-29.316406v143.066406zm334.691406-372h-24v-44h24zm0 0" data-original="#000000" class="active-path" data-old_color="#000000" fill="#FFFFF0"/><path d="m100.671875 140c2.628906 0 5.207031-1.070312 7.066406-2.929688 1.859375-1.859374 2.933594-4.441406 2.933594-7.070312s-1.070313-5.210938-2.933594-7.070312c-1.859375-1.859376-4.4375-2.929688-7.066406-2.929688-2.632813 0-5.210937 1.070312-7.070313 2.929688-1.859374 1.859374-2.929687 4.441406-2.929687 7.070312s1.066406 5.210938 2.929687 7.070312c1.859376 1.859376 4.4375 2.929688 7.070313 2.929688zm0 0" data-original="#000000" class="active-path" data-old_color="#000000" fill="#FFFFF0"/><path d="m122.667969 458c5.523437 0 10-4.476562 10-10v-100h14.671875c4.042968 0 7.6875-2.4375 9.238281-6.171875 1.546875-3.738281.691406-8.039063-2.167969-10.898437l-46.671875-46.667969c-3.902343-3.90625-10.234375-3.90625-14.140625 0l-46.667968 46.667969c-2.859376 2.859374-3.714844 7.160156-2.167969 10.898437 1.546875 3.734375 5.191406 6.171875 9.238281 6.171875h14.667969v100c0 5.523438 4.480469 10 10 10zm-22-152.527344 22.527343 22.527344h-.527343c-5.519531 0-10 4.476562-10 10v100h-24v-100c0-5.523438-4.476563-10-10-10h-.523438zm0 0" data-original="#000000" class="active-path" data-old_color="#000000" fill="#FFFFF0"/><path d="m244.289062 450.878906c-2.628906 0-5.210937 1.0625-7.070312 2.921875-1.859375 1.871094-2.929688 4.4375-2.929688 7.078125 0 2.632813 1.070313 5.199219 2.929688 7.0625 1.859375 1.867188 4.441406 2.929688 7.070312 2.929688 2.640626 0 5.210938-1.0625 7.070313-2.929688 1.871094-1.859375 2.929687-4.429687 2.929687-7.0625 0-2.640625-1.058593-5.207031-2.929687-7.078125-1.859375-1.863281-4.4375-2.921875-7.070313-2.921875zm0 0" data-original="#000000" class="active-path" data-old_color="#000000" fill="#FFFFF0"/></g> </svg>
