<?xml version="1.0"?>
<svg xmlns="http://www.w3.org/2000/svg" height="512px" viewBox="0 -24 480 480" width="512px" class=""><g><path d="m232 352h16v16h-16zm0 0" data-original="#000000" class="active-path" data-old_color="#FFFFFF" fill="#FFFFF0"/><path d="m273.941406 341.253906 11.3125-11.3125 11.3125 11.3125-11.3125 11.3125zm0 0" data-original="#000000" class="active-path" data-old_color="#FFFFFF" fill="#FFFFF0"/><path d="m296 288h16v16h-16zm0 0" data-original="#000000" class="active-path" data-old_color="#FFFFFF" fill="#FFFFF0"/><path d="m168 288h16v16h-16zm0 0" data-original="#000000" class="active-path" data-old_color="#FFFFFF" fill="#FFFFF0"/><path d="m183.425781 341.253906 11.316407-11.3125 11.3125 11.3125-11.3125 11.316406zm0 0" data-original="#000000" class="active-path" data-old_color="#FFFFFF" fill="#FFFFF0"/><path d="m400 416h16v16h-16zm0 0" data-original="#000000" class="active-path" data-old_color="#FFFFFF" fill="#FFFFF0"/><path d="m441.941406 405.257812 11.3125-11.3125 11.316406 11.3125-11.316406 11.316407zm0 0" data-original="#000000" class="active-path" data-old_color="#FFFFFF" fill="#FFFFF0"/><path d="m464 352h16v16h-16zm0 0" data-original="#000000" class="active-path" data-old_color="#FFFFFF" fill="#FFFFF0"/><path d="m336 352h16v16h-16zm0 0" data-original="#000000" class="active-path" data-old_color="#FFFFFF" fill="#FFFFF0"/><path d="m351.425781 405.253906 11.316407-11.316406 11.3125 11.316406-11.3125 11.3125zm0 0" data-original="#000000" class="active-path" data-old_color="#FFFFFF" fill="#FFFFF0"/><path d="m64 384h16v16h-16zm0 0" data-original="#000000" class="active-path" data-old_color="#FFFFFF" fill="#FFFFF0"/><path d="m15.429688 373.253906 11.3125-11.316406 11.3125 11.316406-11.3125 11.3125zm0 0" data-original="#000000" class="active-path" data-old_color="#FFFFFF" fill="#FFFFF0"/><path d="m0 320h16v16h-16zm0 0" data-original="#000000" class="active-path" data-old_color="#FFFFFF" fill="#FFFFF0"/><path d="m128 320h16v16h-16zm0 0" data-original="#000000" class="active-path" data-old_color="#FFFFFF" fill="#FFFFF0"/><path d="m105.941406 373.257812 11.3125-11.3125 11.316406 11.3125-11.316406 11.316407zm0 0" data-original="#000000" class="active-path" data-old_color="#FFFFFF" fill="#FFFFF0"/><path d="m472 0h-464c-4.417969 0-8 3.582031-8 8v32c0 4.417969 3.582031 8 8 8h56v208h-8c-4.417969 0-8 3.582031-8 8v32 .175781c-13.789062 10.320313-19.425781 28.3125-13.984375 44.65625 5.4375 16.339844 20.726563 27.367188 37.953125 27.367188 17.222656 0 32.515625-11.027344 37.953125-27.367188 5.4375-16.34375-.195313-34.335937-13.984375-44.65625 0-.0625 0-.113281 0-.175781v-32c0-4.417969-3.582031-8-8-8h-7.9375v-208h152v176h-8c-4.417969 0-8 3.582031-8 8v32 .175781c-13.789062 10.320313-19.425781 28.3125-13.984375 44.65625 5.4375 16.339844 20.726563 27.367188 37.953125 27.367188 17.222656 0 32.515625-11.027344 37.953125-27.367188 5.4375-16.34375-.195313-34.335937-13.984375-44.65625 0-.0625 0-.113281 0-.175781v-32c0-4.417969-3.582031-8-8-8h-7.9375v-176h152v240h-8c-4.417969 0-8 3.582031-8 8v32 .175781c-13.789062 10.320313-19.425781 28.3125-13.984375 44.65625 5.4375 16.339844 20.726563 27.367188 37.953125 27.367188 17.222656 0 32.515625-11.027344 37.953125-27.367188 5.4375-16.34375-.195313-34.335937-13.984375-44.65625 0-.0625 0-.113281 0-.175781v-32c0-4.417969-3.582031-8-8-8h-7.9375v-240h56c4.417969 0 8-3.582031 8-8v-32c0-4.417969-3.582031-8-8-8zm-400 352c-13.253906 0-24-10.746094-24-24s10.746094-24 24-24 24 10.746094 24 24-10.746094 24-24 24zm-8-64v-16h16v16zm176 32c-13.253906 0-24-10.746094-24-24s10.746094-24 24-24 24 10.746094 24 24-10.746094 24-24 24zm-8-64v-16h16v16zm176 128c-13.253906 0-24-10.746094-24-24s10.746094-24 24-24 24 10.746094 24 24-10.746094 24-24 24zm-8-64v-16h16v16zm64-288h-448v-16h448zm0 0" data-original="#000000" class="active-path" data-old_color="#FFFFFF" fill="#FFFFF0"/></g> </svg>
