<?xml version="1.0"?>
<svg xmlns="http://www.w3.org/2000/svg" height="512px" viewBox="0 0 480.04752 480" width="512px" class=""><g><path d="m240.003906 344.023438h16v16h-16zm0 0" data-original="#000000" class="active-path" data-old_color="#000000" fill="#FFFFF0"/><path d="m352.003906 296.023438c-4.417968 0-8 3.582031-8 8v48c0 4.417968 3.582032 8 8 8h48c4.417969 0 8-3.582032 8-8v-48c0-4.417969-3.582031-8-8-8zm40 48h-32v-32h32zm0 0" data-original="#000000" class="active-path" data-old_color="#000000" fill="#FFFFF0"/><path d="m128.003906 296.023438h-48c-4.417968 0-8 3.582031-8 8v48c0 4.417968 3.582032 8 8 8h48c4.417969 0 8-3.582032 8-8v-48c0-4.417969-3.582031-8-8-8zm-8 48h-32v-32h32zm0 0" data-original="#000000" class="active-path" data-old_color="#000000" fill="#FFFFF0"/><path d="m456.003906 64.023438v-24c-.027344-22.082032-17.917968-39.9726568-40-40.0000005h-48c-22.082031.0273437-39.972656 17.9179685-40 40.0000005v24c-13.253906 0-24 10.746093-24 24v48h-51.199218l-7.808594-6.246094c-2.921875-2.339844-7.078125-2.339844-10 0l-7.792969 6.246094h-171.199219c-3.03125 0-5.804687 1.710937-7.160156 4.425781l-48 96c-1.238281 2.480469-1.105469 5.425781.351562 7.78125 1.460938 2.359375 4.035157 3.792969 6.808594 3.792969h32v152h-8c-4.417968 0-8 3.582031-8 8v24h-16c-4.417968 0-7.99999975 3.582031-7.99999975 8v32c0 4.417968 3.58203175 8 7.99999975 8h464c4.417969 0 8-3.582032 8-8v-32c0-4.417969-3.582031-8-8-8h-16v-24c0-4.417969-3.582031-8-8-8h-8v-152h32c2.78125.015624 5.367188-1.414063 6.835938-3.773438 1.46875-2.363281 1.605468-5.316406.363281-7.800781l-30.253906-60.425781h7.054687c13.253906 0 24-10.746094 24-24v-64c0-13.253907-10.746094-24-24-24zm-112-24c0-13.253907 10.746094-24 24-24h48c13.253906 0 24 10.746093 24 24v24h-8v-24c0-8.835938-7.164062-16-16-16h-48c-8.835937 0-16 7.164062-16 16v24h-8zm72 24h-48v-24h48zm-65.679687 170.503906c1.070312.859375 1.6875 2.15625 1.679687 3.527344.003906 1.722656-.980468 3.292968-2.535156 4.039062-1.550781.746094-3.394531.535156-4.738281-.542969l-99.726563-79.773437c-2.921875-2.339844-7.078125-2.339844-10 0l-99.726562 79.773437c-1.347656 1.082031-3.199219 1.292969-4.753906.539063-1.554688-.753906-2.535157-2.339844-2.519532-4.066406 0-1.363282.621094-2.652344 1.6875-3.503907l110.3125-88.246093zm-38.320313 165.496094h-32v-112c0-4.417969-3.582031-8-8-8h-64c-4.417968 0-8 3.582031-8 8v112h-32v-164.160157l72-57.597656 72 57.597656zm-48 0h-48v-104h48zm-235.054687-184h83.054687c4.417969 0 8-3.582032 8-8 0-4.417969-3.582031-8-8-8h-75.054687l8-16h43.054687c4.417969 0 8-3.582032 8-8 0-4.417969-3.582031-8-8-8h-35.054687l8-16h146.253906l-20 16h-67.199219c-4.417968 0-8 3.582031-8 8 0 4.417968 3.582032 8 8 8h47.199219l-47.503906 38c-3.183594 2.585937-5.515625 6.070312-6.6875 10h-92.0625zm27.054687 32h58.6875c2.019532 3.6875 5.136719 6.65625 8.921875 8.496093 7.089844 3.4375 15.527344 2.476563 21.664063-2.472656l6.726562-5.382813v151.359376h-96zm408 216h-448v-16h448zm-424-32v-16h400v16zm384-32h-96v-151.359376l6.726563 5.382813c4.679687 3.789063 10.792969 5.304687 16.699219 4.140625 5.902343-1.160156 10.988281-4.886719 13.878906-10.164062h58.695312zm19.054688-200h-19.054688c-4.417968 0-8 3.582031-8 8 0 4.417968 3.582032 8 8 8h27.054688l8 16h-92.0625c-1.164063-3.929688-3.496094-7.414063-6.679688-9.992188l-7.511718-6.007812h39.199218c4.417969 0 8-3.582032 8-8 0-4.417969-3.582031-8-8-8h-59.199218l-60-48h31.199218c0 13.253906 10.746094 24 24 24h103.054688zm12.945312-40h-128c-4.417968 0-8-3.582032-8-8v-8.328126l23.886719.328126h.113281c4.417969.03125 8.023438-3.527344 8.054688-7.945313s-3.523438-8.023437-7.941406-8.054687l-24.113282-.328126v-16l23.894532.328126h.105468c4.417969.027343 8.023438-3.53125 8.050782-7.949219.03125-4.417969-3.527344-8.023438-7.945313-8.050781l-24.105469-.3125v-7.6875c0-4.417969 3.582032-8 8-8h128c4.417969 0 8 3.582031 8 8v7.6875l-24.105468.3125c-4.417969.027343-7.976563 3.632812-7.945313 8.050781.027344 4.417969 3.632813 7.976562 8.050781 7.949219h.105469l23.894531-.3125v16l-24.113281.3125c-4.417969.03125-7.972656 3.636718-7.941406 8.054687s3.636719 7.976563 8.054687 7.945313h.113282l23.886718-.328126v8.328126c0 4.417968-3.582031 8-8 8zm0 0" data-original="#000000" class="active-path" data-old_color="#000000" fill="#FFFFF0"/><path d="m392.003906 96.023438c-13.253906 0-24 10.746093-24 24 0 13.253906 10.746094 24 24 24s24-10.746094 24-24c0-13.253907-10.746094-24-24-24zm0 32c-4.417968 0-8-3.582032-8-8 0-4.417969 3.582032-8 8-8 4.417969 0 8 3.582031 8 8 0 4.417968-3.582031 8-8 8zm0 0" data-original="#000000" class="active-path" data-old_color="#000000" fill="#FFFFF0"/></g> </svg>
