<?xml version="1.0"?>
<svg xmlns="http://www.w3.org/2000/svg" height="512px" viewBox="0 -104 512.001 512" width="512px" class=""><g><path d="m494.5 86.710938h-8.074219v-17.492188c0-9.648438-7.851562-17.5-17.5-17.5h-56.425781v-34.21875c0-9.648438-7.851562-17.5-17.5-17.5h-39.332031c-9.648438 0-17.5 7.851562-17.5 17.5v34.21875h-11.90625c-4.140625 0-7.5 3.359375-7.5 7.5 0 4.144531 3.359375 7.5 7.5 7.5h11.90625v19.992188h-168.90625c-4.144531 0-7.5 3.355468-7.5 7.5 0 4.140624 3.355469 7.5 7.5 7.5h325.238281c1.378906 0 2.5 1.121093 2.5 2.5v17.785156c0 4.140625 3.359375 7.5 7.5 7.5s7.5-3.359375 7.5-7.5v-17.785156c0-9.652344-7.851562-17.5-17.5-17.5zm-25.574219-19.992188c1.378907 0 2.5 1.121094 2.5 2.5v17.492188h-58.925781v-19.992188zm-115.757812-49.21875c0-1.378906 1.121093-2.5 2.5-2.5h39.332031c1.378906 0 2.5 1.121094 2.5 2.5v17.84375h-44.332031zm0 69.210938v-36.367188h44.332031v36.367188zm0 0" data-original="#000000" class="active-path" data-old_color="#000000" fill="#FFFFF0"/><path d="m504.5 149.019531c-4.140625 0-7.5 3.355469-7.5 7.5v28.757813c0 1.378906-1.121094 2.5-2.5 2.5h-477c-1.378906 0-2.5-1.121094-2.5-2.5v-81.066406c0-1.378907 1.121094-2.5 2.5-2.5h117.238281c4.144531 0 7.5-3.359376 7.5-7.5 0-4.144532-3.355469-7.5-7.5-7.5h-94.164062v-17.492188c0-1.378906 1.121093-2.5 2.5-2.5h248.664062c4.144531 0 7.5-3.355469 7.5-7.5 0-4.140625-3.355469-7.5-7.5-7.5h-248.664062c-9.648438 0-17.5 7.851562-17.5 17.5v17.492188h-8.074219c-9.648438 0-17.5 7.851562-17.5 17.5v81.066406c0 9.648437 7.851562 17.5 17.5 17.5h214.695312v43.226562c0 6.007813-4.890624 10.898438-10.902343 10.898438h-24.988281c-13.125 0-23.804688 10.679687-23.804688 23.804687 0 13.128907 10.679688 23.804688 23.804688 23.804688h119.390624c13.125 0 23.804688-10.675781 23.804688-23.804688 0-13.125-10.679688-23.804687-23.804688-23.804687h-24.996093c-6.007813 0-10.894531-4.886719-10.894531-10.894532v-43.230468h48.769531v9.851562c0 8.273438 5.777343 15.207032 13.5 17.023438v14.796875c0 17.675781 14.378906 32.054687 32.054687 32.054687h81.746094c17.671875 0 32.050781-14.378906 32.050781-32.054687v-41.671875h6.574219c9.648438 0 17.5-7.851563 17.5-17.5v-28.757813c0-4.144531-3.359375-7.5-7.5-7.5zm-77.5 112.269531c-8.191406-1.238281-14.5-8.308593-14.5-16.839843v-14.796875c7.726562-1.816406 13.5-8.75 13.5-17.023438v-9.851562h15.5v41.671875c0 8.53125-6.308594 15.601562-14.5 16.839843zm-16-48.660156c0 1.378906-1.121094 2.5-2.5 2.5h-7c-1.378906 0-2.5-1.121094-2.5-2.5v-9.851562h12zm-120.300781 59.273438h24.996093c4.855469 0 8.804688 3.949218 8.804688 8.804687s-3.949219 8.804688-8.804688 8.804688h-119.390624c-4.855469 0-8.804688-3.949219-8.804688-8.804688s3.949219-8.804687 8.804688-8.804687h24.988281c14.28125 0 25.902343-11.617188 25.902343-25.902344v-43.226562h17.609376v43.230468c0 14.28125 11.617187 25.898438 25.894531 25.898438zm64.875-69.125v9.851562c0 1.378906-1.121094 2.5-2.5 2.5h-7c-1.378907 0-2.5-1.121094-2.5-2.5v-9.851562zm1.5 41.671875v-14.800781c7.726562-1.816407 13.5-8.746094 13.5-17.019532v-9.855468h13.425781v9.855468c0 8.269532 5.773438 15.203125 13.5 17.019532v14.800781c0 6.261719 1.8125 12.109375 4.933594 17.050781h-28.304688c-9.40625 0-17.054687-7.648438-17.054687-17.050781zm115.851562 0c0 9.402343-7.648437 17.050781-17.054687 17.050781h-4.304688c3.121094-4.941406 4.933594-10.789062 4.933594-17.050781v-41.675781h16.425781zm0 0" data-original="#000000" class="active-path" data-old_color="#000000" fill="#FFFFF0"/><path d="m63.089844 144.808594c0 4.140625 3.355468 7.5 7.5 7.5h108.207031c4.140625 0 7.5-3.359375 7.5-7.5 0-4.144532-3.359375-7.5-7.5-7.5h-108.207031c-4.144532 0-7.5 3.355468-7.5 7.5zm0 0" data-original="#000000" class="active-path" data-old_color="#000000" fill="#FFFFF0"/><path d="m257.191406 144.808594c0-13.648438-11.105468-24.757813-24.753906-24.757813-13.652344 0-24.753906 11.105469-24.753906 24.757813 0 13.648437 11.101562 24.753906 24.753906 24.753906 13.648438 0 24.753906-11.105469 24.753906-24.753906zm-34.511718 0c0-5.378906 4.378906-9.757813 9.753906-9.757813 5.378906 0 9.753906 4.378907 9.753906 9.757813 0 5.375-4.375 9.753906-9.753906 9.753906-5.375 0-9.753906-4.378906-9.753906-9.753906zm0 0" data-original="#000000" class="active-path" data-old_color="#000000" fill="#FFFFF0"/><path d="m318.523438 144.808594c0-13.648438-11.105469-24.757813-24.753907-24.757813-13.648437 0-24.753906 11.105469-24.753906 24.757813 0 13.648437 11.101563 24.753906 24.753906 24.753906 13.648438 0 24.753907-11.105469 24.753907-24.753906zm-34.507813 0c0-5.378906 4.375-9.757813 9.753906-9.757813 5.378907 0 9.753907 4.378907 9.753907 9.757813 0 5.375-4.375 9.753906-9.753907 9.753906-5.378906 0-9.753906-4.378906-9.753906-9.753906zm0 0" data-original="#000000" class="active-path" data-old_color="#000000" fill="#FFFFF0"/><path d="m437.136719 144.863281v-.113281c0-4.144531-3.359375-7.5-7.5-7.5s-7.5 3.355469-7.5 7.5v.113281c0 4.144531 3.359375 7.5 7.5 7.5s7.5-3.355469 7.5-7.5zm0 0" data-original="#000000" class="active-path" data-old_color="#000000" fill="#FFFFF0"/><path d="m412.5 144.863281v-.113281c0-4.144531-3.359375-7.5-7.5-7.5s-7.5 3.355469-7.5 7.5v.113281c0 4.144531 3.359375 7.5 7.5 7.5s7.5-3.355469 7.5-7.5zm0 0" data-original="#000000" class="active-path" data-old_color="#000000" fill="#FFFFF0"/><path d="m387.863281 144.863281v-.113281c0-4.144531-3.359375-7.5-7.5-7.5s-7.5 3.355469-7.5 7.5v.113281c0 4.144531 3.359375 7.5 7.5 7.5s7.5-3.355469 7.5-7.5zm0 0" data-original="#000000" class="active-path" data-old_color="#000000" fill="#FFFFF0"/></g> </svg>
