<?xml version="1.0"?>
<svg xmlns="http://www.w3.org/2000/svg" height="512px" viewBox="0 0 480.00802 480.00802" width="512px" class=""><g><path d="m384 272.40625v-232.40625c-.027344-22.082031-17.917969-39.9726562-40-40h-304c-22.082031.0273438-39.9726562 17.917969-40 40v304c.0273438 22.082031 17.917969 39.972656 40 40h232.40625c4.230469 55.191406 50.964844 97.386719 106.300781 95.972656 55.332031-1.410156 99.855469-45.933594 101.265625-101.265625 1.414063-55.335937-40.78125-102.070312-95.972656-106.300781zm-368 71.59375v-304c0-13.253906 10.746094-24 24-24h304c13.253906 0 24 10.746094 24 24v232.40625c-5.390625.414062-10.738281 1.25-16 2.496094v-234.902344c0-4.417969-3.582031-8-8-8h-304c-4.417969 0-8 3.582031-8 8v304c0 4.417969 3.582031 8 8 8h234.902344c-1.246094 5.261719-2.082032 10.609375-2.496094 16h-232.40625c-13.253906 0-24-10.746094-24-24zm264-8h-232v-288h288v232c-25.289062 10.601562-45.398438 30.710938-56 56zm96 128c-48.601562 0-88-39.398438-88-88s39.398438-88 88-88 88 39.398438 88 88c-.058594 48.578125-39.421875 87.941406-88 88zm0 0" data-original="#000000" class="active-path" data-old_color="#000000" fill="#FFFFF0"/><path d="m438.214844 353.785156c-34.351563-34.382812-90.078125-34.382812-124.429688 0-3.03125 3.136719-2.988281 8.128906.097656 11.214844 3.085938 3.085938 8.074219 3.128906 11.214844.097656 28.113282-28.109375 73.691406-28.109375 101.804688 0 3.140625 3.03125 8.128906 2.988282 11.214844-.097656 3.085937-3.085938 3.128906-8.078125.097656-11.214844zm0 0" data-original="#000000" class="active-path" data-old_color="#000000" fill="#FFFFF0"/><path d="m376 352c-16.984375-.046875-33.28125 6.703125-45.257812 18.742188-3.03125 3.140624-2.988282 8.128906.097656 11.214843 3.085937 3.085938 8.078125 3.128907 11.214844.097657 18.746093-18.746094 49.144531-18.746094 67.890624 0 3.136719 3.03125 8.128907 2.988281 11.214844-.097657 3.085938-3.085937 3.128906-8.074219.097656-11.214843-11.976562-12.039063-28.273437-18.789063-45.257812-18.742188zm0 0" data-original="#000000" class="active-path" data-old_color="#000000" fill="#FFFFF0"/><path d="m376 376c-10.589844 0-20.75 4.191406-28.257812 11.664062-2.222657 1.957032-3.183594 4.984376-2.492188 7.867188.6875 2.882812 2.914062 5.148438 5.785156 5.886719s5.914063-.171875 7.910156-2.363281c9.527344-9.09375 24.519532-9.09375 34.046876 0 1.996093 2.191406 5.039062 3.101562 7.910156 2.363281 2.867187-.738281 5.09375-3.003907 5.785156-5.886719s-.269531-5.910156-2.496094-7.867188c-7.488281-7.457031-17.625-11.648437-28.191406-11.664062zm0 0" data-original="#000000" class="active-path" data-old_color="#000000" fill="#FFFFF0"/><path d="m392 416c0 8.835938-7.164062 16-16 16s-16-7.164062-16-16 7.164062-16 16-16 16 7.164062 16 16zm0 0" data-original="#000000" class="active-path" data-old_color="#000000" fill="#FFFFF0"/><path d="m191.929688 256h2.445312c48.359375-.671875 87.109375-40.242188 86.773438-88.601562-.335938-48.363282-39.632813-87.390626-87.996094-87.390626-48.363282 0-87.660156 39.027344-88 87.390626-.335938 48.359374 38.417968 87.929687 86.777344 88.601562zm-52.203126-137.511719c13.097657-13.917969 31.222657-22.019531 50.328126-22.488281h2c38.992187.015625 70.886718 31.070312 71.945312 70.046875.878906 32.574219-20.230469 61.679687-51.464844 70.960937-31.238281 9.28125-64.8125-3.570312-81.863281-31.339843-17.054687-27.769531-13.328125-63.527344 9.082031-87.1875zm0 0" data-original="#000000" class="active-path" data-old_color="#000000" fill="#FFFFF0"/><path d="m232 192c13.253906 0 24-10.746094 24-24s-10.746094-24-24-24-24 10.746094-24 24 10.746094 24 24 24zm0-32c4.417969 0 8 3.582031 8 8s-3.582031 8-8 8-8-3.582031-8-8 3.582031-8 8-8zm0 0" data-original="#000000" class="active-path" data-old_color="#000000" fill="#FFFFF0"/><path d="m176 168c0-13.253906-10.746094-24-24-24s-24 10.746094-24 24 10.746094 24 24 24 24-10.746094 24-24zm-32 0c0-4.417969 3.582031-8 8-8s8 3.582031 8 8-3.582031 8-8 8-8-3.582031-8-8zm0 0" data-original="#000000" class="active-path" data-old_color="#000000" fill="#FFFFF0"/><path d="m144 288h-32c-4.417969 0-8 3.582031-8 8s3.582031 8 8 8h32c4.417969 0 8-3.582031 8-8s-3.582031-8-8-8zm0 0" data-original="#000000" class="active-path" data-old_color="#000000" fill="#FFFFF0"/><path d="m208 288h-32c-4.417969 0-8 3.582031-8 8s3.582031 8 8 8h32c4.417969 0 8-3.582031 8-8s-3.582031-8-8-8zm0 0" data-original="#000000" class="active-path" data-old_color="#000000" fill="#FFFFF0"/><path d="m272 288h-32c-4.417969 0-8 3.582031-8 8s3.582031 8 8 8h32c4.417969 0 8-3.582031 8-8s-3.582031-8-8-8zm0 0" data-original="#000000" class="active-path" data-old_color="#000000" fill="#FFFFF0"/></g> </svg>
