<?xml version="1.0"?>
<svg xmlns="http://www.w3.org/2000/svg" height="512px" viewBox="0 1 511 511.999" width="512px" class=""><g><path d="m512.488281 78.855469v-78.855469h-511.988281v78.855469l20.652344 20.652343h470.679687zm-496.988281-63.855469h481.988281v38.496094h-481.988281zm11.867188 69.507812-11.867188-11.863281v-4.148437h481.988281v4.148437l-11.867187 11.863281zm0 0" data-original="#000000" class="active-path" data-old_color="#000000" fill="#FFFFF0"/><path d="m84.652344 162.492188h49.191406l-9.386719-52.984376h-54.871093zm27.226562-37.984376 4.074219 22.988282h-19.972656l-6.535157-22.988282zm0 0" data-original="#000000" class="active-path" data-old_color="#000000" fill="#FFFFF0"/><path d="m428.332031 162.492188 15.066407-52.984376h-54.867188l-9.386719 52.984376zm-27.226562-37.984376h22.433593l-6.535156 22.988282h-19.972656zm0 0" data-original="#000000" class="active-path" data-old_color="#000000" fill="#FFFFF0"/><path d="m154.296875 162.492188h52.433594l-2.597657-52.984376h-58.683593zm35.554687-37.984376 1.125 22.988282h-23.976562l-3.835938-22.988282zm0 0" data-original="#000000" class="active-path" data-old_color="#000000" fill="#FFFFF0"/><path d="m358.691406 162.492188 8.84375-52.984376h-58.683594l-2.597656 52.984376zm-35.554687-37.984376h26.6875l-3.835938 22.988282h-23.980469zm0 0" data-original="#000000" class="active-path" data-old_color="#000000" fill="#FFFFF0"/><path d="m285.398438 162.492188 1.863281-52.984376h-61.539063l1.863282 52.984376zm-13.671876-37.984376-.808593 22.988282h-28.851563l-.808594-22.988282zm0 0" data-original="#000000" class="active-path" data-old_color="#000000" fill="#FFFFF0"/><path d="m443.707031 231.492188 33.386719-117.433594-14.425781-4.101563-17.78125 62.535157h-376.785157l-17.78125-62.535157-14.429687 4.101563 33.390625 117.433594zm-3.085937-44-8.246094 29h-351.765625l-8.246094-29zm0 0" data-original="#000000" class="active-path" data-old_color="#000000" fill="#FFFFF0"/><path d="m333.683594 364.640625-63.835938-63.835937c-1.921875-1.921876-1.921875-5.050782 0-6.972657l18.386719-18.386719-31.457031-31.460937-18.386719 18.386719c-19.269531 19.269531-19.269531 50.621094 0 69.890625l63.835937 63.835937c1.921876 1.921875 1.921876 5.050782 0 6.972656l-18.386718 18.386719 31.460937 31.460938 18.386719-18.386719c19.265625-19.269531 19.265625-50.621094-.003906-69.890625zm-10.605469 59.285156-7.78125 7.78125-10.246094-10.246093 7.78125-7.78125c7.769531-7.773438 7.769531-20.417969 0-28.1875l-63.835937-63.835938c-13.421875-13.417969-13.421875-35.257812 0-48.675781l7.78125-7.78125 10.246094 10.246093-7.78125 7.78125c-7.769532 7.769532-7.769532 20.414063 0 28.183594l63.835937 63.839844c13.421875 13.417969 13.421875 35.253906 0 48.675781zm0 0" data-original="#000000" class="active-path" data-old_color="#000000" fill="#FFFFF0"/><path d="m274.601562 423.722656-63.835937-63.835937c-1.921875-1.921875-1.921875-5.050781 0-6.972657l18.386719-18.386718-31.457032-31.460938-18.386718 18.386719c-19.269532 19.269531-19.269532 50.621094 0 69.890625l63.835937 63.835938c1.921875 1.921874 1.921875 5.050781 0 6.972656l-18.386719 18.390625 31.460938 31.457031 18.386719-18.386719c19.265625-19.269531 19.265625-50.621093-.003907-69.890625zm-10.605468 59.285156-7.78125 7.78125-10.246094-10.246093 7.78125-7.78125c7.769531-7.769531 7.769531-20.414063 0-28.183594l-63.835938-63.839844c-13.421874-13.417969-13.421874-35.253906 0-48.675781l7.78125-7.78125 10.246094 10.246094-7.78125 7.78125c-7.769531 7.769531-7.769531 20.414062 0 28.183594l63.835938 63.839843c13.421875 13.417969 13.421875 35.253907 0 48.675781zm0 0" data-original="#000000" class="active-path" data-old_color="#000000" fill="#FFFFF0"/><path d="m509.871094 482.953125-70.300782-121.765625c-3.496093-6.058594-9.761718-9.675781-16.757812-9.675781s-13.261719 3.617187-16.761719 9.675781l-70.300781 121.765625c-3.496094 6.058594-3.496094 13.292969 0 19.351563 3.5 6.058593 9.765625 9.675781 16.761719 9.675781h140.601562c6.996094 0 13.261719-3.617188 16.757813-9.675781 3.5-6.058594 3.5-13.292969 0-19.351563zm-12.988282 11.851563c-.378906.652343-1.5 2.175781-3.769531 2.175781h-140.601562c-2.269531 0-3.394531-1.523438-3.769531-2.175781-.378907-.65625-1.136719-2.390626 0-4.355469l70.300781-121.761719c1.132812-1.964844 3.011719-2.179688 3.769531-2.179688.753906 0 2.632812.214844 3.769531 2.179688l70.300781 121.761719c1.132813 1.964843.378907 3.699219 0 4.355469zm0 0" data-original="#000000" class="active-path" data-old_color="#000000" fill="#FFFFF0"/><path d="m415.3125 402.910156h15v56.738282h-15zm0 0" data-original="#000000" class="active-path" data-old_color="#000000" fill="#FFFFF0"/><path d="m415.3125 469.648438h15v15h-15zm0 0" data-original="#000000" class="active-path" data-old_color="#000000" fill="#FFFFF0"/><path d="m482.988281 40h-105.050781v-15h105.050781zm-115.050781 0h-14.996094v-15h14.996094zm-24.996094 0h-15v-15h15zm0 0" data-original="#000000" class="active-path" data-old_color="#000000" fill="#FFFFF0"/><path d="m421.078125 208.492188h-91.585937v-15h91.585937zm-101.585937 0h-14.996094v-15h14.996094zm-24.996094 0h-15v-15h15zm0 0" data-original="#000000" class="active-path" data-old_color="#000000" fill="#FFFFF0"/></g> </svg>
